<?xml version="1.0" encoding="utf-8"?>
<!-- Generator: Adobe Illustrator 24.1.1, SVG Export Plug-In . SVG Version: 6.00 Build 0)  -->
<svg version="1.1"
	 id="svg2" xmlns:cc="http://creativecommons.org/ns#" xmlns:dc="http://purl.org/dc/elements/1.1/" xmlns:rdf="http://www.w3.org/1999/02/22-rdf-syntax-ns#" xmlns:svg="http://www.w3.org/2000/svg"
	 xmlns="http://www.w3.org/2000/svg" xmlns:xlink="http://www.w3.org/1999/xlink" x="0px" y="0px" viewBox="0 0 438.7 246.7"
	 style="enable-background:new 0 0 438.7 246.7;" xml:space="preserve">
<g id="g10" transform="matrix(1.3333333,0,0,-1.3333333,0,246.66667)">
	<g id="g12" transform="scale(0.1)">
		<path id="path14" d="M2064.5,973.4h-78.7v324.9h-109.4v74.1H2174v-74.1h-109.4V973.4"/>
		<path id="path16" d="M2371.8,1192.3c-53,0-79.8-35.9-79.8-90.1V973.4h-72.4v285h48.4l8-61.6c21.1,39.9,59.3,65.5,112.9,65.5h12
			v-70.1H2371.8"/>
		<path id="path18" d="M2744,1009.8c0-83.2-54.1-145.4-142.5-145.4c-52.5,0-95.8,18.8-126.6,44.5l41.1,43.9
			c27.3-13.7,53-22.8,85.5-22.2c41.1,0,69.5,21.1,69.5,62.7v18.2c-18.3-23.4-48.4-33.6-78.1-33.6c-82.7,0-124.8,56.5-124.8,139.1
			v141.4h72.4V1121c0-52.5,25.1-73,63.9-73c41,0,67.3,24.5,67.3,79.3v131.1h72.4L2744,1009.8"/>
		<path id="path20" d="M2144.9,465.4v163.6h-154.5V465.4h-78.7v399.1h78.7V703.2h154.5v161.3h78.7V465.4H2144.9"/>
		<path id="path22" d="M2526.3,608c0,46.7-35.9,76.4-73.6,76.4c-38.2,0-73.5-29.6-73.5-76.4c0-46.8,35.4-75.8,73.5-75.8
			C2490.3,532.1,2526.3,561.2,2526.3,608z M2544.5,465.4l-4,40.5c-21.1-26.8-55.3-43.9-94.6-43.9c-80.9,0-139.1,65-139.1,145.9
			c0,80.9,58.1,146.5,139.1,146.5c39.3,0,73.6-17.6,94.6-44.4l4,40.5h48.5v-285H2544.5"/>
		<path id="path24" d="M2931.5,701.4l-43.3-46.8c-23.4,21.7-43.9,29.1-69,29.1c-38.2,0-73.6-29.1-73.6-75.8
			c0-46.8,35.4-75.8,73.6-75.8c25.1,0,45.6,7.4,69,29.1l43.3-46.8c-26.8-31.9-67.3-52.4-112.3-52.4c-81,0-145.9,65-145.9,145.9
			c0,80.9,65,145.9,145.9,145.9C2864.3,753.9,2904.7,733.4,2931.5,701.4"/>
		<path id="path26" d="M3158.4,541.3c-17.1,26.2-26.8,35.9-54.1,35.9h-20V465.4h-72.4v399.1h72.4V646.7h17.6
			c26.8,0,36.5,9.1,53.6,35.9l44.4,67.8h80.4l-63.9-96.3c-11.9-18.8-27.9-36.5-40.4-41.6c14.2-4.6,30.2-22.8,43.3-42.8l68.4-104.3
			h-80.4L3158.4,541.3"/>
		<path id="path28" d="M2224.7,7.8v254.9l-120.3-149.4l-119.7,149.4V7.8h-78.7v399.1h46.8l151.6-190.4l152.2,190.4h46.8V7.8H2224.7"
			/>
		<path id="path30" d="M2472.1,176h130.6c0,6.8-2.3,16-6.8,22.8c-9.7,18.2-30.2,31.9-57.6,31.9
			C2499.4,230.7,2473.2,203.4,2472.1,176z M2663.6,219.9c12-26.2,12.5-65,4.6-89.5h-198.9c0-38.8,31.9-59.9,70.7-59.9
			c29.6,0,60.4,6.9,86.1,20l38.2-41.6c-30.8-22.8-73.6-44.5-124.3-44.5c-86.6,0-145.4,62.7-145.4,145.9
			c0,80.9,54.7,146.5,143.7,146.5C2599.2,296.8,2642,267.8,2663.6,219.9"/>
		<path id="path32" d="M976.1,894.8V1030l-34.3-26.5l-22.6,30.9l60.5,44.5h39.8V894.8H976.1"/>
		<path id="path34" d="M1154.4,987.3c0,5.7-0.3,12-1,19c-0.7,6.9-2,13.4-3.9,19.4c-1.9,6-4.7,11-8.2,15.1c-3.6,4.1-8.2,6.1-13.9,6.1
			c-5.7,0-10.4-2-14-6.1c-3.7-4.1-6.5-9.1-8.5-15.1c-2-6-3.3-12.5-4-19.4c-0.7-7-1.1-13.3-1.1-19c0-5.9,0.4-12.3,1.1-19.4
			c0.7-7,2-13.5,4-19.5c2-6,4.8-11,8.5-15.1c3.6-4.1,8.3-6.1,14-6.1c5.7,0,10.3,2,13.9,6.1c3.6,4.1,6.3,9.1,8.2,15.1
			c1.9,6,3.2,12.5,3.9,19.5C1154.1,975,1154.4,981.4,1154.4,987.3z M1199.1,987.3c0-13-1.3-25.4-3.9-37.2
			c-2.6-11.8-6.8-22.1-12.5-31.1c-5.7-8.9-13.1-16.1-22.2-21.3c-9.1-5.3-20.2-7.9-33.2-7.9c-13,0-24.1,2.7-33.3,7.9
			c-9.2,5.3-16.7,12.4-22.5,21.3c-5.8,8.9-10,19.3-12.6,31.1c-2.6,11.8-3.9,24.2-3.9,37.2c0,13,1.3,25.4,3.9,37
			c2.6,11.7,6.8,21.9,12.6,30.7c5.8,8.8,13.3,15.7,22.5,20.9c9.2,5.2,20.3,7.8,33.3,7.8c13,0,24.1-2.6,33.2-7.8
			c9.1-5.2,16.5-12.2,22.2-20.9c5.7-8.8,9.9-19,12.5-30.7C1197.9,1012.7,1199.1,1000.4,1199.1,987.3"/>
		<path id="path36" d="M1443.2,894.8V1030l-34.3-26.5l-22.7,30.9l60.6,44.5h39.8V894.8H1443.2"/>
		<path id="path38" d="M1621.5,987.3c0,5.7-0.3,12-1,19c-0.7,6.9-2,13.4-3.9,19.4c-1.9,6-4.7,11-8.2,15.1c-3.6,4.1-8.2,6.1-13.9,6.1
			c-5.7,0-10.4-2-14-6.1c-3.7-4.1-6.5-9.1-8.5-15.1c-2-6-3.3-12.5-4-19.4c-0.7-7-1.1-13.3-1.1-19c0-5.9,0.4-12.3,1.1-19.4
			c0.7-7,2-13.5,4-19.5c2-6,4.8-11,8.5-15.1c3.6-4.1,8.3-6.1,14-6.1c5.7,0,10.3,2,13.9,6.1c3.6,4.1,6.3,9.1,8.2,15.1
			c1.9,6,3.2,12.5,3.9,19.5C1621.2,975,1621.5,981.4,1621.5,987.3z M1666.3,987.3c0-13-1.3-25.4-3.9-37.2
			c-2.6-11.8-6.8-22.1-12.5-31.1c-5.7-8.9-13.1-16.1-22.2-21.3c-9.1-5.3-20.2-7.9-33.2-7.9s-24.1,2.7-33.3,7.9
			c-9.2,5.3-16.7,12.4-22.5,21.3c-5.8,8.9-10,19.3-12.6,31.1c-2.6,11.8-3.9,24.2-3.9,37.2c0,13,1.3,25.4,3.9,37
			c2.6,11.7,6.8,21.9,12.6,30.7s13.3,15.7,22.5,20.9c9.2,5.2,20.3,7.8,33.3,7.8s24.1-2.6,33.2-7.8c9.1-5.2,16.5-12.2,22.2-20.9
			c5.7-8.8,9.9-19,12.5-30.7C1665,1012.7,1666.3,1000.4,1666.3,987.3"/>
		<path id="path40" d="M972,605v135.2l-34.3-26.5l-22.6,30.9l60.6,44.5h39.8V605H972"/>
		<path id="path42" d="M1125.1,605v135.2l-34.3-26.5l-22.6,30.9l60.6,44.5h39.8V605H1125.1"/>
		<path id="path44" d="M1277.5,605v135.2l-34.3-26.5l-22.6,30.9l60.5,44.5h39.8V605H1277.5"/>
		<path id="path46" d="M1463.7,697.6c0,5.7-0.3,12-1.1,18.9c-0.7,7-2,13.4-3.9,19.4c-1.9,6-4.7,11-8.2,15.1
			c-3.6,4.1-8.2,6.1-13.9,6.1c-5.7,0-10.4-2-14.1-6.1c-3.6-4.1-6.4-9.1-8.4-15.1c-2-6-3.3-12.4-4-19.4c-0.7-6.9-1.1-13.2-1.1-18.9
			c0-5.9,0.3-12.4,1.1-19.4c0.7-7,2-13.5,4-19.5c2-6,4.8-11,8.4-15.1c3.7-4.1,8.3-6.1,14.1-6.1c5.7,0,10.3,2,13.9,6.1
			c3.6,4.1,6.3,9.1,8.2,15.1c1.9,6,3.2,12.5,3.9,19.5C1463.4,685.2,1463.7,691.7,1463.7,697.6z M1508.4,697.6
			c0-13-1.3-25.4-3.9-37.2c-2.6-11.8-6.8-22.2-12.5-31.1c-5.7-8.9-13.1-16-22.2-21.3c-9.1-5.3-20.1-7.9-33.1-7.9s-24.1,2.6-33.3,7.9
			c-9.2,5.3-16.7,12.4-22.5,21.3c-5.8,8.9-10,19.3-12.6,31.1c-2.6,11.8-3.9,24.2-3.9,37.2c0,13,1.3,25.3,3.9,37
			c2.6,11.7,6.8,21.9,12.6,30.7c5.8,8.8,13.3,15.8,22.5,21c9.2,5.2,20.3,7.8,33.3,7.8s24-2.6,33.1-7.8c9.1-5.2,16.5-12.2,22.2-21
			c5.7-8.8,9.9-18.9,12.5-30.7C1507.2,722.9,1508.4,710.6,1508.4,697.6"/>
		<path id="path48" d="M1060,398.6v98.1l-24.9-19.2l-16.4,22.4l44,32.3h28.9V398.6H1060"/>
		<path id="path50" d="M1281,398.6v98.1l-24.9-19.2l-16.4,22.4l44,32.3h28.9V398.6H1281"/>
		<path id="path52" d="M971.7,465.8c0,4.1-0.2,8.8-0.7,13.8c-0.5,5-1.5,9.7-2.9,14.1c-1.4,4.3-3.4,8-5.9,10.9
			c-2.6,2.9-5.9,4.4-10.1,4.4c-4.2,0-7.6-1.5-10.2-4.4c-2.7-3-4.7-6.6-6.1-10.9c-1.5-4.4-2.4-9.1-2.9-14.1c-0.5-5-0.8-9.6-0.8-13.8
			c0-4.3,0.3-9,0.8-14.1c0.5-5.1,1.5-9.9,2.9-14.2c1.5-4.3,3.5-8,6.1-10.9c2.6-3,6-4.4,10.2-4.4c4.1,0,7.5,1.4,10.1,4.4
			c2.6,3,4.6,6.6,5.9,10.9c1.4,4.3,2.3,9.1,2.9,14.2C971.4,456.8,971.7,461.5,971.7,465.8z M1004.1,465.8c0-9.4-0.9-18.4-2.8-27
			c-1.9-8.6-4.9-16.1-9.1-22.5c-4.2-6.5-9.5-11.7-16.1-15.5c-6.6-3.8-14.6-5.7-24.1-5.7c-9.4,0-17.5,1.9-24.2,5.7
			c-6.7,3.8-12.1,9-16.3,15.5c-4.2,6.4-7.3,14-9.1,22.5c-1.9,8.6-2.9,17.5-2.9,27c0,9.4,0.9,18.4,2.9,26.9
			c1.9,8.5,4.9,15.9,9.1,22.3c4.2,6.3,9.7,11.4,16.3,15.2c6.7,3.8,14.7,5.7,24.2,5.7c9.4,0,17.5-1.9,24.1-5.7
			c6.6-3.8,12-8.9,16.1-15.2c4.1-6.4,7.2-13.8,9.1-22.3C1003.2,484.2,1004.1,475.2,1004.1,465.8"/>
		<path id="path54" d="M1193.9,465.8c0,4.1-0.2,8.8-0.8,13.8c-0.5,5-1.4,9.7-2.8,14.1c-1.4,4.3-3.4,8-5.9,10.9
			c-2.6,2.9-5.9,4.4-10.1,4.4c-4.2,0-7.6-1.5-10.2-4.4c-2.7-3-4.7-6.6-6.1-10.9c-1.5-4.4-2.5-9.1-2.9-14.1c-0.5-5-0.8-9.6-0.8-13.8
			c0-4.3,0.3-9,0.8-14.1c0.5-5.1,1.4-9.9,2.9-14.2c1.4-4.3,3.5-8,6.1-10.9c2.6-3,6-4.4,10.2-4.4c4.1,0,7.5,1.4,10.1,4.4
			c2.6,3,4.6,6.6,5.9,10.9c1.4,4.3,2.3,9.1,2.8,14.2C1193.7,456.8,1193.9,461.5,1193.9,465.8z M1226.4,465.8c0-9.4-0.9-18.4-2.8-27
			c-1.9-8.6-4.9-16.1-9.1-22.5c-4.2-6.5-9.5-11.7-16.1-15.5c-6.6-3.8-14.7-5.7-24.1-5.7c-9.5,0-17.5,1.9-24.2,5.7
			c-6.7,3.8-12.1,9-16.3,15.5c-4.2,6.4-7.3,14-9.1,22.5c-1.9,8.6-2.8,17.5-2.8,27c0,9.4,0.9,18.4,2.8,26.9
			c1.9,8.5,4.9,15.9,9.1,22.3c4.2,6.3,9.7,11.4,16.3,15.2c6.7,3.8,14.7,5.7,24.2,5.7c9.4,0,17.5-1.9,24.1-5.7
			c6.6-3.8,11.9-8.9,16.1-15.2c4.1-6.4,7.2-13.8,9.1-22.3C1225.4,484.2,1226.4,475.2,1226.4,465.8"/>
		<path id="path56" d="M1648.8,398.6v98.1l-24.9-19.2l-16.4,22.4l44,32.3h28.9V398.6H1648.8"/>
		<path id="path58" d="M1561.8,465.8c0,4.1-0.2,8.8-0.7,13.8c-0.5,5-1.4,9.7-2.9,14.1c-1.4,4.3-3.4,8-5.9,10.9
			c-2.6,2.9-5.9,4.4-10.1,4.4c-4.2,0-7.6-1.5-10.2-4.4c-2.7-3-4.7-6.6-6.2-10.9c-1.4-4.4-2.4-9.1-2.9-14.1c-0.5-5-0.8-9.6-0.8-13.8
			c0-4.3,0.3-9,0.8-14.1c0.5-5.1,1.5-9.9,2.9-14.2c1.5-4.3,3.5-8,6.2-10.9c2.6-3,6-4.4,10.2-4.4c4.1,0,7.5,1.4,10.1,4.4
			c2.6,3,4.6,6.6,5.9,10.9c1.4,4.3,2.3,9.1,2.9,14.2C1561.5,456.8,1561.8,461.5,1561.8,465.8z M1594.2,465.8c0-9.4-0.9-18.4-2.8-27
			c-1.9-8.6-4.9-16.1-9.1-22.5c-4.2-6.5-9.5-11.7-16.1-15.5c-6.6-3.8-14.7-5.7-24.1-5.7c-9.4,0-17.5,1.9-24.2,5.7
			c-6.7,3.8-12.1,9-16.3,15.5c-4.2,6.4-7.3,14-9.1,22.5c-1.9,8.6-2.8,17.5-2.8,27c0,9.4,0.9,18.4,2.8,26.9
			c1.9,8.5,4.9,15.9,9.1,22.3c4.2,6.3,9.7,11.4,16.3,15.2c6.7,3.8,14.7,5.7,24.2,5.7c9.4,0,17.5-1.9,24.1-5.7
			c6.6-3.8,11.9-8.9,16.1-15.2c4.1-6.4,7.2-13.8,9.1-22.3C1593.3,484.2,1594.2,475.2,1594.2,465.8"/>
		<path id="path60" d="M1527.5,241.2v98.1l-24.9-19.3l-16.5,22.5l44,32.3h28.9V241.2H1527.5"/>
		<path id="path62" d="M1440.5,308.4c0,4.1-0.2,8.8-0.7,13.8c-0.5,5-1.4,9.7-2.8,14.1c-1.4,4.3-3.4,8-5.9,10.9
			c-2.6,2.9-5.9,4.4-10.1,4.4c-4.2,0-7.6-1.5-10.2-4.4c-2.7-3-4.7-6.6-6.1-10.9c-1.4-4.4-2.4-9.1-2.9-14.1c-0.5-5-0.8-9.6-0.8-13.8
			c0-4.3,0.3-9,0.8-14.1c0.5-5.1,1.5-9.9,2.9-14.2c1.4-4.3,3.5-8,6.1-10.9c2.6-3,6-4.4,10.2-4.4c4.1,0,7.5,1.4,10.1,4.4
			c2.6,3,4.6,6.6,5.9,10.9c1.4,4.3,2.3,9.1,2.8,14.2C1440.2,299.4,1440.5,304.1,1440.5,308.4z M1472.9,308.4c0-9.4-0.9-18.4-2.8-27
			c-1.9-8.6-4.9-16.1-9.1-22.6c-4.1-6.5-9.5-11.6-16.1-15.5c-6.6-3.8-14.7-5.7-24.1-5.7c-9.4,0-17.5,1.9-24.2,5.7
			c-6.7,3.8-12.1,9-16.3,15.5c-4.2,6.5-7.3,14-9.1,22.6c-1.9,8.6-2.8,17.5-2.8,27c0,9.4,1,18.4,2.8,26.9c1.9,8.5,4.9,15.9,9.1,22.3
			c4.2,6.3,9.7,11.4,16.3,15.2c6.7,3.8,14.7,5.7,24.2,5.7c9.4,0,17.5-1.9,24.1-5.7c6.6-3.8,12-8.9,16.1-15.2
			c4.2-6.4,7.2-13.8,9.1-22.3C1472,326.8,1472.9,317.8,1472.9,308.4"/>
		<path id="path64" d="M1015.9,243.1v68l-17.3-13.3l-11.4,15.6l30.5,22.3h20v-92.6H1015.9"/>
		<path id="path66" d="M955.6,289.6c0,2.9-0.2,6.1-0.5,9.6c-0.4,3.5-1,6.7-2,9.7c-0.9,3-2.3,5.5-4.1,7.6c-1.8,2.1-4.1,3.1-7,3.1
			c-2.9,0-5.2-1-7.1-3.1c-1.8-2-3.2-4.6-4.3-7.6c-1-3-1.7-6.3-2-9.7c-0.3-3.5-0.5-6.7-0.5-9.6c0-2.9,0.2-6.2,0.5-9.7
			c0.4-3.6,1-6.8,2-9.8c1-3,2.4-5.6,4.3-7.6c1.8-2.1,4.2-3.1,7.1-3.1c2.9,0,5.2,1,7,3.1c1.8,2,3.2,4.6,4.1,7.6c1,3,1.6,6.3,2,9.8
			C955.4,283.4,955.6,286.7,955.6,289.6z M978.1,289.6c0-6.5-0.7-12.8-2-18.7c-1.3-5.9-3.4-11.1-6.3-15.6c-2.9-4.5-6.6-8-11.2-10.7
			c-4.6-2.7-10.1-4-16.6-4c-6.6,0-12.1,1.4-16.8,4c-4.6,2.7-8.4,6.2-11.3,10.7c-2.9,4.5-5,9.7-6.3,15.6c-1.3,5.9-2,12.2-2,18.7
			c0,6.6,0.6,12.8,2,18.6c1.3,5.9,3.4,11.1,6.3,15.5c2.9,4.4,6.7,7.9,11.3,10.5c4.6,2.6,10.2,3.9,16.8,3.9c6.5,0,12.1-1.3,16.6-3.9
			c4.6-2.6,8.3-6.1,11.2-10.5c2.9-4.4,5-9.6,6.3-15.5C977.4,302.4,978.1,296.2,978.1,289.6"/>
		<path id="path68" d="M1287.8,124.1v68l-17.3-13.3l-11.4,15.6l30.5,22.4h20v-92.6L1287.8,124.1"/>
		<path id="path70" d="M1227.5,170.7c0,2.9-0.2,6.1-0.6,9.6c-0.3,3.5-1,6.7-1.9,9.7s-2.3,5.6-4.1,7.6c-1.8,2.1-4.1,3.1-7,3.1
			c-2.8,0-5.2-1-7-3.1c-1.8-2-3.3-4.6-4.3-7.6c-1-3-1.7-6.3-2-9.7c-0.3-3.5-0.6-6.7-0.6-9.6c0-3,0.2-6.2,0.6-9.7
			c0.3-3.6,1-6.8,2-9.9c1-3,2.4-5.5,4.3-7.6c1.8-2,4.2-3,7-3c2.9,0,5.2,1,7,3c1.8,2.1,3.1,4.6,4.1,7.6c1,3.1,1.6,6.3,1.9,9.9
			C1227.3,164.5,1227.5,167.7,1227.5,170.7z M1250,170.7c0-6.5-0.7-12.8-2-18.7c-1.3-5.9-3.4-11.1-6.3-15.6
			c-2.9-4.5-6.6-8.1-11.2-10.8c-4.6-2.7-10.1-3.9-16.7-3.9c-6.5,0-12.1,1.3-16.7,3.9c-4.7,2.7-8.4,6.3-11.3,10.8
			c-2.9,4.5-5,9.7-6.3,15.6c-1.3,5.9-2,12.2-2,18.7c0,6.5,0.7,12.8,2,18.6c1.3,5.9,3.4,11.1,6.3,15.4c2.9,4.4,6.7,7.9,11.3,10.5
			c4.6,2.6,10.2,3.9,16.7,3.9c6.6,0,12.1-1.3,16.7-3.9c4.6-2.6,8.3-6.1,11.2-10.5c2.8-4.4,5-9.5,6.3-15.4
			C1249.3,183.5,1250,177.2,1250,170.7"/>
		<path id="path72" d="M1661,308.4c0,4.1-0.2,8.8-0.8,13.8c-0.5,5-1.4,9.7-2.8,14.1c-1.4,4.3-3.4,8-5.9,10.9
			c-2.6,2.9-5.9,4.4-10.1,4.4c-4.1,0-7.6-1.5-10.2-4.4c-2.7-3-4.7-6.6-6.1-10.9c-1.4-4.4-2.4-9.1-2.9-14.1c-0.5-5-0.7-9.6-0.7-13.8
			c0-4.3,0.2-9,0.7-14.1c0.5-5.1,1.5-9.9,2.9-14.2c1.4-4.3,3.5-8,6.1-10.9c2.6-3,6.1-4.4,10.2-4.4c4.1,0,7.5,1.4,10.1,4.4
			c2.6,3,4.6,6.6,5.9,10.9c1.4,4.3,2.3,9.1,2.8,14.2C1660.8,299.4,1661,304.1,1661,308.4z M1693.5,308.4c0-9.4-1-18.4-2.9-27
			c-1.9-8.6-4.9-16.1-9.1-22.6c-4.1-6.5-9.5-11.6-16.1-15.5c-6.6-3.8-14.6-5.7-24.1-5.7c-9.5,0-17.5,1.9-24.2,5.7
			c-6.6,3.8-12.1,9-16.3,15.5c-4.2,6.5-7.3,14-9.1,22.6c-1.9,8.6-2.8,17.5-2.8,27c0,9.4,1,18.4,2.8,26.9c1.9,8.5,4.9,15.9,9.1,22.3
			c4.2,6.3,9.7,11.4,16.3,15.2c6.7,3.8,14.7,5.7,24.2,5.7c9.4,0,17.5-1.9,24.1-5.7c6.6-3.8,12-8.9,16.1-15.2
			c4.1-6.4,7.2-13.8,9.1-22.3C1692.5,326.8,1693.5,317.8,1693.5,308.4"/>
		<path id="path74" d="M1600.2,1210.5c-30.8,150.6-164.9,259.9-318.9,259.9c-23.4,0-46.5-2.7-68.9-7.5
			c-37.4,219.5-228.9,387.2-458.9,387.2c-227.9,0-417.9-164.6-457.7-381.1C130.2,1453.9,0,1314.4,0,1144.9
			c0-179.5,146-325.4,325.5-325.4h487c24.8,0,45,20.1,45,45c0,24.9-20.2,45-45,45h-487C195.6,909.5,90,1015.1,90,1144.9
			c0,129.8,105.6,235.5,235.5,235.5c47.2,0,92.7-13.9,131.6-40.2c20.6-13.9,48.6-8.5,62.5,12.1c13.9,20.6,8.5,48.6-12.1,62.5
			c-36.8,24.8-77.8,41.4-120.9,49.7c36.8,168.8,187.3,295.6,366.9,295.6c191.4,0,349.7-143.9,372.6-329.2
			c-12.1-6.6-23.9-13.8-35.2-21.9c-20.2-14.5-24.7-42.7-10.2-62.8c14.6-20.2,42.7-24.7,62.8-10.2c40.2,29.1,87.8,44.4,137.7,44.4
			c111.4,0,208.4-79,230.7-188c4.4-21.3,23.1-36,44.1-36c3,0,6,0.3,9.1,0.9C1589.4,1162.3,1605.1,1186.1,1600.2,1210.5"/>
	</g>
</g>
</svg>
